<svg xmlns="http://www.w3.org/2000/svg" width="24" height="15" viewBox="0 0 24 15">
    <path fill="#FFF" fill-rule="nonzero" d="M21.072 0a2.931 2.931 0 0 0-2.928 2.928c0 .778.306 1.485.803 2.01l-2.455 3.7a2.922 2.922 0 0 0-2.73.667l-1.83-1.83c.209-.404.328-.86.328-1.345a2.931 2.931 0 0 0-2.928-2.928 2.931 2.931 0 0 0-2.648 4.176L4.601 9.065a2.91 2.91 0 0 0-1.673-.527A2.932 2.932 0 0 0 0 11.466a2.931 2.931 0 0 0 2.928 2.928 2.931 2.931 0 0 0 2.68-4.103l2.118-1.715a2.91 2.91 0 0 0 1.606.482 2.91 2.91 0 0 0 1.515-.424l2.064 2.063a2.931 2.931 0 0 0 2.825 3.697 2.931 2.931 0 0 0 2.927-2.928c0-.78-.307-1.49-.807-2.015l2.453-3.697A2.931 2.931 0 0 0 24 2.927 2.931 2.931 0 0 0 21.073 0zM2.928 12.808a1.343 1.343 0 0 1 0-2.683c.74 0 1.341.602 1.341 1.341 0 .74-.602 1.342-1.341 1.342zM9.332 7.47c-.74 0-1.341-.602-1.341-1.341 0-.74.601-1.341 1.34-1.341.74 0 1.342.601 1.342 1.34 0 .74-.602 1.342-1.341 1.342zm6.404 5.337a1.343 1.343 0 0 1 0-2.683c.74 0 1.341.602 1.341 1.341 0 .74-.602 1.342-1.341 1.342zm5.336-8.539c-.74 0-1.341-.601-1.341-1.341s.602-1.341 1.341-1.341c.74 0 1.342.601 1.342 1.34 0 .74-.602 1.342-1.342 1.342z"/>
</svg>
