<svg xmlns="http://www.w3.org/2000/svg" width="24" height="24" viewBox="0 0 24 24">
    <g fill="none" fill-rule="nonzero">
        <ellipse cx="11.915" cy="12.02" fill="#DC4E41" rx="11.915" ry="11.81"/>
        <g fill="#FFF">
            <path d="M4.148 12.55c-.096-2.512 2.123-4.832 4.659-4.862 1.292-.11 2.55.388 3.527 1.2-.4.436-.81.869-1.245 1.273-.861-.518-1.898-.913-2.904-.562-1.623.458-2.606 2.357-2.006 3.931.498 1.644 2.515 2.546 4.096 1.855.818-.29 1.358-1.039 1.595-1.843-.938-.019-1.877-.007-2.815-.033-.002-.553-.004-1.104-.002-1.657 1.564-.003 3.131-.007 4.698.007.096 1.355-.106 2.806-.995 3.894-1.217 1.553-3.466 2.009-5.296 1.4-1.942-.633-3.354-2.572-3.312-4.604zM16.8 10.456h1.396c.002.463.007.928.01 1.39.466.005.935.008 1.402.01v1.386l-1.403.007-.01 1.392c-.466-.002-.933 0-1.397 0-.005-.465-.005-.927-.01-1.39-.466-.005-.935-.007-1.402-.01v-1.385c.467-.003.934-.005 1.403-.01.002-.462.007-.927.011-1.39z"/>
        </g>
    </g>
</svg>
