<svg xmlns="http://www.w3.org/2000/svg" width="24" height="24" viewBox="0 0 24 24">
    <g fill="none" fill-rule="nonzero">
        <ellipse cx="11.915" cy="11.915" fill="#395976" rx="11.915" ry="11.915"/>
        <path fill="#F1F2F2" d="M12.356 8.078v-3.2h-2.065c-.047.117-.07.26-.07.401-.021.07-.047.12-.047.19-.211 1.186-.828 2.014-1.872 2.466-.31.143-.594.164-.9.143v2.58h1.517c.025 3.63.025 5.501.025 5.596v.215c.19 1.584 1.018 2.533 2.488 2.89.592.164 1.23.237 1.872.237a8.81 8.81 0 0 0 2.441-.426v-3.036c-.47.142-.9.262-1.28.38-.734.214-1.35.072-1.85-.402-.047-.073-.117-.168-.142-.263a6.526 6.526 0 0 1-.114-1.16v-4.032h3.291v-2.58h-3.294z"/>
    </g>
</svg>
