<svg xmlns="http://www.w3.org/2000/svg" width="16" height="16" viewBox="0 0 16 16">
    <g fill="none" fill-rule="evenodd">
        <rect width="16" height="16" fill="#55ACEE" rx="2"/>
        <path fill="#F1F2F2" fill-rule="nonzero" d="M12.809 5.708c-.34.151-.707.253-1.09.3.391-.236.692-.608.834-1.051a3.8 3.8 0 0 1-1.206.46A1.899 1.899 0 0 0 8.112 7.15a5.39 5.39 0 0 1-3.913-1.984A1.899 1.899 0 0 0 4.786 7.7a1.885 1.885 0 0 1-.86-.237v.024a1.9 1.9 0 0 0 1.523 1.861 1.892 1.892 0 0 1-.857.033A1.9 1.9 0 0 0 6.365 10.7a3.81 3.81 0 0 1-2.81.786 5.37 5.37 0 0 0 2.91.853c3.492 0 5.402-2.893 5.402-5.402a5.43 5.43 0 0 0-.006-.246 3.85 3.85 0 0 0 .948-.983z"/>
    </g>
</svg>
