<svg xmlns="http://www.w3.org/2000/svg" width="14" height="8" viewBox="0 0 14 8">
    <g fill="none" fill-rule="evenodd">
        <path fill="#00AEF0" fill-rule="nonzero" d="M7.123 2.298c-1.03 0-1.917.623-2.305 1.512a2.517 2.517 0 0 0-2.305-1.512c-.48 0-.93.135-1.312.37V.601A.6.6 0 1 0 0 .6v4.21a2.516 2.516 0 0 0 2.513 2.513c1.03 0 1.917-.623 2.305-1.512a2.517 2.517 0 0 0 2.305 1.512 2.516 2.516 0 0 0 2.513-2.513 2.516 2.516 0 0 0-2.513-2.513zm-4.61 3.825a1.314 1.314 0 0 1-1.312-1.312c0-.724.589-1.312 1.312-1.312.724 0 1.312.588 1.312 1.312 0 .723-.588 1.312-1.312 1.312zm4.61 0A1.314 1.314 0 0 1 5.81 4.811c0-.724.588-1.312 1.312-1.312.723 0 1.312.588 1.312 1.312 0 .723-.589 1.312-1.312 1.312zm5.255-1.337l1.474 1.685a.6.6 0 0 1-.905.79l-1.366-1.563-1.367 1.564a.6.6 0 0 1-.848.056.6.6 0 0 1-.056-.847l1.473-1.685L9.31 3.101a.6.6 0 0 1 .904-.79l1.367 1.563 1.366-1.564a.6.6 0 0 1 .905.791l-1.474 1.685z"/>
        <path d="M-1-4h16v16H-1z"/>
    </g>
</svg>
