<svg xmlns="http://www.w3.org/2000/svg" width="12" height="12" viewBox="0 0 12 12">
    <g fill="none" fill-rule="evenodd">
        <path fill="#1587EA" fill-rule="nonzero" d="M5.568 6.487c.158.102.17.328.024.446L3.524 8.597a.276.276 0 0 1-.322.017L.126 6.631a.276.276 0 0 1-.023-.447L2.17 4.52a.276.276 0 0 1 .322-.016l3.075 1.983zm.84.446a.276.276 0 0 1 .024-.446l3.075-1.983c.1-.065.23-.058.322.016l2.068 1.664a.276.276 0 0 1-.023.447L8.798 8.614a.276.276 0 0 1-.322-.017L6.408 6.933zm-.816-5.208a.276.276 0 0 1-.024.446L2.493 4.155a.276.276 0 0 1-.322-.017L.103 2.474a.276.276 0 0 1 .023-.447L3.202.044c.1-.064.23-.058.322.017l2.068 1.664zm6.282.302c.158.102.17.329.023.447L9.83 4.138a.276.276 0 0 1-.322.017L6.432 2.17a.276.276 0 0 1-.024-.446L8.476.06a.276.276 0 0 1 .322-.017l3.076 1.983zM5.849 7.225a.25.25 0 0 1 .313 0l2.304 1.847a.25.25 0 0 0 .292.015l.537-.346a.25.25 0 0 1 .386.21v.177a.25.25 0 0 1-.12.214l-3.448 2.09a.25.25 0 0 1-.26 0l-3.447-2.09a.25.25 0 0 1-.12-.214V8.93a.25.25 0 0 1 .386-.21l.57.368a.25.25 0 0 0 .292-.014l2.315-1.848z"/>
        <path d="M-2-2h16v16H-2z"/>
    </g>
</svg>
