<svg xmlns="http://www.w3.org/2000/svg" width="10" height="12" viewBox="0 0 10 12">
    <g fill="none" fill-rule="evenodd">
        <path fill="#D7DBDE" fill-rule="nonzero" d="M9.088 6.219a.879.879 0 0 0 .911-.847c.021-.49-.317-.931-.8-.952L6 4.018s.667-1.115.667-2.768C6.666.148 5.88 0 5.416 0c-.364 0-.462.705-.462.705-.083.453-.19.848-.563 1.575-.418.816-.987.74-1.65 1.465a3.77 3.77 0 0 0-.429.599.206.206 0 0 0-.035.06c-.014.032-.03.055-.045.084l-.075.143C1.747 5.04 1.107 5 .833 5 .287 5 0 5.317 0 5.833v3.81c0 .578.237.773.834.773h.833c.42 0 .748.24 1.25.417.687.238 1.714.417 3.483.417h1.268c.294 0 .53-.133.7-.295a.535.535 0 0 0 .162-.326 1.7 1.7 0 0 0 .009-.156c.022-.5-.28-.68-.451-.737.005-.002.001-.006.01-.005l.544.024c.482.022.958-.325.958-.916 0-.49-.397-.835-.878-.858l.288.013a.88.88 0 0 0 .912-.848.883.883 0 0 0-.834-.927z"/>
        <path d="M-3-2h16v16H-3z"/>
    </g>
</svg>
