<svg xmlns="http://www.w3.org/2000/svg" width="10" height="10" viewBox="0 0 10 10">
    <g fill="none" fill-rule="evenodd">
        <path d="M-1-1h12v12H-1z"/>
        <path fill="#2980B9" d="M8.715 5.49c.02-.16.035-.32.035-.49 0-.17-.015-.33-.035-.49l1.055-.825a.252.252 0 0 0 .06-.32l-1-1.73c-.06-.11-.195-.15-.305-.11l-1.245.5c-.26-.2-.54-.365-.845-.49L6.245.21A.244.244 0 0 0 6 0H4c-.125 0-.23.09-.245.21l-.19 1.325a3.841 3.841 0 0 0-.845.49l-1.245-.5a.244.244 0 0 0-.305.11l-1 1.73a.247.247 0 0 0 .06.32l1.055.825c-.02.16-.035.325-.035.49 0 .165.015.33.035.49L.23 6.315a.252.252 0 0 0-.06.32l1 1.73c.06.11.195.15.305.11l1.245-.5c.26.2.54.365.845.49l.19 1.325c.015.12.12.21.245.21h2c.125 0 .23-.09.245-.21l.19-1.325c.305-.125.585-.295.845-.49l1.245.5c.115.045.245 0 .305-.11l1-1.73a.252.252 0 0 0-.06-.32L8.715 5.49zM5 6.75c-.965 0-1.75-.785-1.75-1.75S4.035 3.25 5 3.25 6.75 4.035 6.75 5 5.965 6.75 5 6.75z"/>
    </g>
</svg>
