<svg xmlns="http://www.w3.org/2000/svg" width="7" height="13" viewBox="0 0 7 13">
    <g fill="none" fill-rule="evenodd">
        <path fill="#FFF" d="M3.867 6.057c-1.514-.382-2-.777-2-1.392 0-.706.673-1.198 1.8-1.198 1.186 0 1.626.55 1.666 1.36h1.474C6.76 3.713 6.06 2.69 4.667 2.36V.942h-2v1.399C1.373 2.613.333 3.428.333 4.678c0 1.495 1.274 2.24 3.134 2.674 1.666.388 2 .958 2 1.56 0 .447-.327 1.159-1.8 1.159-1.374 0-1.914-.596-1.987-1.36H.213c.08 1.418 1.174 2.214 2.454 2.48v1.405h2v-1.392C5.967 10.964 7 10.233 7 8.905 7 7.067 5.38 6.44 3.867 6.057z"/>
        <path d="M-4-1h16v15.538H-4z"/>
    </g>
</svg>
