<svg xmlns="http://www.w3.org/2000/svg" width="14" height="14" viewBox="0 0 14 14">
    <g fill="none" fill-rule="evenodd">
        <path d="M-1-1h16v15.538H-1z"/>
        <path fill="#FFF" d="M11.953 7.403c.027-.207.047-.414.047-.634 0-.22-.02-.427-.047-.634l1.407-1.069a.32.32 0 0 0 .08-.414l-1.333-2.24a.34.34 0 0 0-.407-.143l-1.66.648a4.908 4.908 0 0 0-1.127-.635L8.66.567a.322.322 0 0 0-.327-.272H5.667a.322.322 0 0 0-.327.272l-.253 1.715a5.16 5.16 0 0 0-1.127.635L2.3 2.269a.33.33 0 0 0-.407.143L.56 4.652a.313.313 0 0 0 .08.414l1.407 1.069c-.027.207-.047.42-.047.634 0 .214.02.427.047.634L.64 8.472a.32.32 0 0 0-.08.414l1.333 2.24a.34.34 0 0 0 .407.142l1.66-.647c.347.259.72.473 1.127.635l.253 1.715c.02.156.16.272.327.272h2.666a.322.322 0 0 0 .327-.272l.253-1.715a5.16 5.16 0 0 0 1.127-.635l1.66.647a.33.33 0 0 0 .407-.142l1.333-2.24a.32.32 0 0 0-.08-.414l-1.407-1.069zM7 9.035c-1.287 0-2.333-1.017-2.333-2.266 0-1.25 1.046-2.266 2.333-2.266 1.287 0 2.333 1.016 2.333 2.266S8.287 9.035 7 9.035z"/>
    </g>
</svg>
