<svg xmlns="http://www.w3.org/2000/svg" width="12" height="12" viewBox="0 0 12 12">
    <g fill="none" fill-rule="evenodd">
        <g fill-rule="nonzero">
            <path fill="#2196F3" d="M11.667 1.333H6.333v9.334h5.334a.333.333 0 0 0 .333-.334V1.667a.333.333 0 0 0-.333-.334z"/>
            <g fill="#FFF">
                <path d="M6.333 3H11v1H6.333zM6.333 4.333H11v1H6.333zM6.333 5.667H11v1H6.333zM6.333 7H11v1H6.333zM6.333 8.333H11v1H6.333z"/>
            </g>
            <path fill="#0D47A1" d="M7 12l-7-1.333V1.333L7 0z"/>
            <path fill="#FFF" d="M5.056 8.337H4.15l-.6-2.996a3.11 3.11 0 0 1-.059-.525h-.01a3.894 3.894 0 0 1-.066.525l-.617 2.996h-.942L.903 3.666h.891l.512 3.11c.021.134.037.312.048.535h.014a3.32 3.32 0 0 1 .074-.548L3.1 3.666h.874L4.568 6.8c.02.116.04.282.057.504h.01c.007-.172.024-.345.053-.521l.501-3.117h.823l-.956 4.671z"/>
        </g>
        <path d="M-2-2h16v16H-2z"/>
    </g>
</svg>
